STARTFONT 2.1
FONT -Monotype-Gill Sans-Bold-R-Normal--18-180-72-72-P-88-iso8859-1
SIZE 18 72 72
FONTBOUNDINGBOX 23 22 -1 -4

STARTPROPERTIES 22
FOUNDRY "Monotype"
FAMILY_NAME "Gill Sans"
WEIGHT_NAME "Bold"
SLANT "R"
SETWIDTH_NAME "Normal"
ADD_STYLE_NAME ""
PIXEL_SIZE 18
POINT_SIZE 180
RESOLUTION_X 72
RESOLUTION_Y 72
SPACING "P"
AVERAGE_WIDTH 88
CHARSET_REGISTRY "iso8859"
CHARSET_ENCODING "1"
COPYRIGHT "Copyright (c) 1996 Monotype Typography Ltd."
CAP_HEIGHT 15
X_HEIGHT 10
WEIGHT 10
QUAD_WIDTH 13
DEFAULT_CHAR 32
FONT_DESCENT 4
FONT_ASCENT 18
ENDPROPERTIES

CHARS 191

STARTCHAR space
ENCODING 32
SWIDTH 278 0
DWIDTH 6 0
BBX 0 0 0 0
BITMAP
ENDCHAR

STARTCHAR exclam
ENCODING 33
SWIDTH 271 0
DWIDTH 5 0
BBX 3 13 1 0
BITMAP
E0
E0
E0
E0
E0
E0
E0
40
40
00
E0
E0
E0
ENDCHAR

STARTCHAR quotedbl
ENCODING 34
SWIDTH 479 0
DWIDTH 9 0
BBX 7 5 1 9
BITMAP
EE
EE
EE
44
44
ENDCHAR

STARTCHAR numbersign
ENCODING 35
SWIDTH 584 0
DWIDTH 11 0
BBX 10 13 0 0
BITMAP
1980
1980
1980
FFC0
FFC0
3300
3300
3300
FFC0
FFC0
6600
6600
6600
ENDCHAR

STARTCHAR dollar
ENCODING 36
SWIDTH 542 0
DWIDTH 10 0
BBX 8 16 1 -3
BITMAP
18
7E
FF
DB
D8
F8
7C
3E
1F
1B
DB
FF
7E
18
18
18
ENDCHAR

STARTCHAR percent
ENCODING 37
SWIDTH 719 0
DWIDTH 14 0
BBX 12 13 1 0
BITMAP
7000
F830
D860
D8C0
F980
7300
0600
0CE0
19F0
31B0
61B0
C1F0
00E0
ENDCHAR

STARTCHAR ampersand
ENCODING 38
SWIDTH 750 0
DWIDTH 14 0
BBX 13 13 1 0
BITMAP
0F00
1F80
39C0
39C0
3F80
1F00
3F18
7FB8
F3F0
E1E0
F3E0
7F70
3E38
ENDCHAR

STARTCHAR quoteright
ENCODING 39
SWIDTH 271 0
DWIDTH 5 0
BBX 3 6 1 7
BITMAP
E0
E0
E0
60
60
C0
ENDCHAR

STARTCHAR parenleft
ENCODING 40
SWIDTH 385 0
DWIDTH 7 0
BBX 6 17 1 -4
BITMAP
0C
18
30
70
60
E0
E0
E0
E0
E0
E0
E0
60
70
30
18
0C
ENDCHAR

STARTCHAR parenright
ENCODING 41
SWIDTH 385 0
DWIDTH 7 0
BBX 6 17 0 -4
BITMAP
C0
60
30
38
18
1C
1C
1C
1C
1C
1C
1C
18
38
30
60
C0
ENDCHAR

STARTCHAR asterisk
ENCODING 42
SWIDTH 469 0
DWIDTH 9 0
BBX 8 7 0 5
BITMAP
18
DB
FF
3C
FF
DB
18
ENDCHAR

STARTCHAR plus
ENCODING 43
SWIDTH 584 0
DWIDTH 11 0
BBX 10 10 0 2
BITMAP
0C00
0C00
0C00
0C00
FFC0
FFC0
0C00
0C00
0C00
0C00
ENDCHAR

STARTCHAR comma
ENCODING 44
SWIDTH 271 0
DWIDTH 5 0
BBX 3 6 1 -3
BITMAP
E0
E0
E0
60
60
C0
ENDCHAR

STARTCHAR minus
ENCODING 45
SWIDTH 584 0
DWIDTH 11 0
BBX 9 2 1 6
BITMAP
FF80
FF80
ENDCHAR

STARTCHAR period
ENCODING 46
SWIDTH 271 0
DWIDTH 5 0
BBX 3 3 1 0
BITMAP
E0
E0
E0
ENDCHAR

STARTCHAR slash
ENCODING 47
SWIDTH 281 0
DWIDTH 5 0
BBX 5 13 0 0
BITMAP
18
18
18
30
30
30
60
60
60
60
C0
C0
C0
ENDCHAR

STARTCHAR zero
ENCODING 48
SWIDTH 552 0
DWIDTH 10 0
BBX 8 13 1 0
BITMAP
3C
7E
E7
E7
E7
E7
E7
E7
E7
E7
E7
7E
3C
ENDCHAR

STARTCHAR one
ENCODING 49
SWIDTH 552 0
DWIDTH 10 0
BBX 3 13 4 0
BITMAP
E0
E0
E0
E0
E0
E0
E0
E0
E0
E0
E0
E0
E0
ENDCHAR

STARTCHAR two
ENCODING 50
SWIDTH 552 0
DWIDTH 10 0
BBX 9 13 1 0
BITMAP
7C00
FE00
CF00
8700
0700
0700
0E00
0E00
1C00
1800
3000
7F80
FF80
ENDCHAR

STARTCHAR three
ENCODING 51
SWIDTH 552 0
DWIDTH 10 0
BBX 8 13 1 0
BITMAP
7C
FE
8F
07
07
1E
3C
0E
07
07
8F
FE
7C
ENDCHAR

STARTCHAR four
ENCODING 52
SWIDTH 552 0
DWIDTH 10 0
BBX 9 13 0 0
BITMAP
0100
0300
0700
0F00
1F00
3700
6700
C700
FF80
FF80
0700
0700
0700
ENDCHAR

STARTCHAR five
ENCODING 53
SWIDTH 552 0
DWIDTH 10 0
BBX 8 13 1 0
BITMAP
7F
7F
70
70
70
7C
7E
0F
07
07
8F
FE
7C
ENDCHAR

STARTCHAR six
ENCODING 54
SWIDTH 552 0
DWIDTH 10 0
BBX 8 13 1 0
BITMAP
07
0E
1C
38
70
7C
FE
E7
E7
E7
E7
7E
3C
ENDCHAR

STARTCHAR seven
ENCODING 55
SWIDTH 552 0
DWIDTH 10 0
BBX 9 13 0 0
BITMAP
FF80
FF80
0700
0700
0E00
0E00
1C00
1C00
1C00
3800
3800
3800
3800
ENDCHAR

STARTCHAR eight
ENCODING 56
SWIDTH 552 0
DWIDTH 10 0
BBX 8 13 1 0
BITMAP
3C
7E
E7
E7
E7
7E
3C
66
E7
E7
E7
7E
3C
ENDCHAR

STARTCHAR nine
ENCODING 57
SWIDTH 552 0
DWIDTH 10 0
BBX 8 13 1 0
BITMAP
3C
7E
E7
E7
E7
E7
7F
3E
0E
1C
38
70
E0
ENDCHAR

STARTCHAR colon
ENCODING 58
SWIDTH 271 0
DWIDTH 5 0
BBX 3 9 1 0
BITMAP
E0
E0
E0
00
00
00
E0
E0
E0
ENDCHAR

STARTCHAR semicolon
ENCODING 59
SWIDTH 271 0
DWIDTH 5 0
BBX 3 12 1 -3
BITMAP
E0
E0
E0
00
00
00
E0
E0
E0
60
60
C0
ENDCHAR

STARTCHAR less
ENCODING 60
SWIDTH 584 0
DWIDTH 11 0
BBX 10 10 0 2
BITMAP
00C0
03C0
0F00
3C00
F000
F000
3C00
0F00
03C0
00C0
ENDCHAR

STARTCHAR equal
ENCODING 61
SWIDTH 584 0
DWIDTH 11 0
BBX 9 6 1 4
BITMAP
FF80
FF80
0000
0000
FF80
FF80
ENDCHAR

STARTCHAR greater
ENCODING 62
SWIDTH 584 0
DWIDTH 11 0
BBX 10 10 0 2
BITMAP
C000
F000
3C00
0F00
03C0
03C0
0F00
3C00
F000
C000
ENDCHAR

STARTCHAR question
ENCODING 63
SWIDTH 375 0
DWIDTH 7 0
BBX 6 13 1 0
BITMAP
78
FC
9C
1C
38
38
70
60
40
00
70
70
70
ENDCHAR

STARTCHAR at
ENCODING 64
SWIDTH 979 0
DWIDTH 19 0
BBX 17 18 1 -4
BITMAP
03F000
0FFC00
1C0E00
300300
60DB00
63F980
C77180
CE3180
CC3180
CC3300
CC7300
CEFE00
67DC00
638000
300180
1C0700
0FFE00
03F000
ENDCHAR

STARTCHAR A
ENCODING 65
SWIDTH 781 0
DWIDTH 15 0
BBX 15 13 0 0
BITMAP
0380
07C0
07C0
0EE0
0EE0
1C70
1C70
3838
3FF8
7FFC
701C
F01E
E00E
ENDCHAR

STARTCHAR B
ENCODING 66
SWIDTH 698 0
DWIDTH 13 0
BBX 11 13 1 0
BITMAP
FF00
FF80
E1C0
E1C0
E1C0
FF80
FFC0
E1E0
E0E0
E0E0
E1E0
FFC0
FF80
ENDCHAR

STARTCHAR C
ENCODING 67
SWIDTH 771 0
DWIDTH 15 0
BBX 12 13 2 0
BITMAP
0F80
3FE0
78F0
7070
F000
E000
E000
E000
F000
7070
78F0
3FE0
0F80
ENDCHAR

STARTCHAR D
ENCODING 68
SWIDTH 802 0
DWIDTH 15 0
BBX 12 13 2 0
BITMAP
FF00
FFC0
E1E0
E0E0
E0F0
E070
E070
E070
E0F0
E0E0
E1E0
FFC0
FF00
ENDCHAR

STARTCHAR E
ENCODING 69
SWIDTH 635 0
DWIDTH 12 0
BBX 9 13 2 0
BITMAP
FF80
FF80
E000
E000
E000
FF00
FF00
E000
E000
E000
E000
FF80
FF80
ENDCHAR

STARTCHAR F
ENCODING 70
SWIDTH 604 0
DWIDTH 11 0
BBX 9 13 2 0
BITMAP
FF80
FF80
E000
E000
E000
FF00
FF00
E000
E000
E000
E000
E000
E000
ENDCHAR

STARTCHAR G
ENCODING 71
SWIDTH 813 0
DWIDTH 15 0
BBX 13 13 1 0
BITMAP
0FE0
3FF8
7838
7000
F000
E000
E0F8
E0F8
F038
7038
7878
3FF0
0FE0
ENDCHAR

STARTCHAR H
ENCODING 72
SWIDTH 833 0
DWIDTH 16 0
BBX 12 13 2 0
BITMAP
E070
E070
E070
E070
E070
FFF0
FFF0
E070
E070
E070
E070
E070
E070
ENDCHAR

STARTCHAR I
ENCODING 73
SWIDTH 333 0
DWIDTH 6 0
BBX 3 13 1 0
BITMAP
E0
E0
E0
E0
E0
E0
E0
E0
E0
E0
E0
E0
E0
ENDCHAR

STARTCHAR J
ENCODING 74
SWIDTH 333 0
DWIDTH 6 0
BBX 5 17 -1 -4
BITMAP
38
38
38
38
38
38
38
38
38
38
38
38
38
38
38
F0
E0
ENDCHAR

STARTCHAR K
ENCODING 75
SWIDTH 719 0
DWIDTH 14 0
BBX 12 13 2 0
BITMAP
E0F0
E1E0
E3C0
E780
EF00
FE00
FC00
FE00
EF00
E780
E3C0
E1E0
E0F0
ENDCHAR

STARTCHAR L
ENCODING 76
SWIDTH 615 0
DWIDTH 12 0
BBX 9 13 2 0
BITMAP
E000
E000
E000
E000
E000
E000
E000
E000
E000
E000
E000
FF80
FF80
ENDCHAR

STARTCHAR M
ENCODING 77
SWIDTH 885 0
DWIDTH 17 0
BBX 13 13 2 0
BITMAP
C018
E038
F078
F8F8
FDF8
FFF8
EFB8
E738
E238
E038
E038
E038
E038
ENDCHAR

STARTCHAR N
ENCODING 78
SWIDTH 844 0
DWIDTH 16 0
BBX 12 13 2 0
BITMAP
C070
E070
F070
F870
FC70
FE70
EF70
E7F0
E3F0
E1F0
E0F0
E070
E030
ENDCHAR

STARTCHAR O
ENCODING 79
SWIDTH 875 0
DWIDTH 17 0
BBX 13 13 2 0
BITMAP
0F80
3FE0
78F0
7070
F078
E038
E038
E038
F078
7070
78F0
3FE0
0F80
ENDCHAR

STARTCHAR P
ENCODING 80
SWIDTH 656 0
DWIDTH 12 0
BBX 10 13 1 0
BITMAP
FF00
FF80
E1C0
E1C0
E1C0
FF80
FF00
E000
E000
E000
E000
E000
E000
ENDCHAR

STARTCHAR Q
ENCODING 81
SWIDTH 875 0
DWIDTH 17 0
BBX 13 15 2 -2
BITMAP
0F80
3FE0
78F0
7070
F078
E038
E038
E038
F078
7070
78F0
3FE0
0F80
03F8
01F0
ENDCHAR

STARTCHAR R
ENCODING 82
SWIDTH 677 0
DWIDTH 13 0
BBX 11 13 2 0
BITMAP
FF00
FF80
E380
E380
E380
FF00
FE00
FE00
EF00
E780
E3C0
E1E0
E0E0
ENDCHAR

STARTCHAR S
ENCODING 83
SWIDTH 604 0
DWIDTH 11 0
BBX 10 13 0 0
BITMAP
1F00
7F80
F180
E000
F800
FE00
7F80
1FC0
03C0
01C0
C3C0
FF80
7E00
ENDCHAR

STARTCHAR T
ENCODING 84
SWIDTH 719 0
DWIDTH 14 0
BBX 13 13 0 0
BITMAP
FFF8
FFF8
0700
0700
0700
0700
0700
0700
0700
0700
0700
0700
0700
ENDCHAR

STARTCHAR U
ENCODING 85
SWIDTH 823 0
DWIDTH 16 0
BBX 12 13 2 0
BITMAP
E070
E070
E070
E070
E070
E070
E070
E070
E070
E070
70E0
7FE0
1F80
ENDCHAR

STARTCHAR V
ENCODING 86
SWIDTH 719 0
DWIDTH 14 0
BBX 14 13 0 0
BITMAP
F03C
7038
7878
3870
3CF0
1CE0
1FE0
0FC0
0FC0
0780
0780
0300
0300
ENDCHAR

STARTCHAR W
ENCODING 87
SWIDTH 1167 0
DWIDTH 22 0
BBX 22 13 0 0
BITMAP
E0301C
F0783C
707838
78FC78
38FC70
3DFEF0
1DCEE0
1FCFE0
0F87C0
0F87C0
070380
070380
020100
ENDCHAR

STARTCHAR X
ENCODING 88
SWIDTH 813 0
DWIDTH 15 0
BBX 15 13 0 0
BITMAP
F01E
783C
3C78
1EF0
0FE0
07C0
0380
07C0
0FE0
1EF0
3C78
783C
F01E
ENDCHAR

STARTCHAR Y
ENCODING 89
SWIDTH 708 0
DWIDTH 13 0
BBX 13 13 0 0
BITMAP
E038
F078
78F0
3DE0
1FC0
0F80
0700
0700
0700
0700
0700
0700
0700
ENDCHAR

STARTCHAR Z
ENCODING 90
SWIDTH 698 0
DWIDTH 13 0
BBX 11 13 1 0
BITMAP
FFE0
FFE0
03C0
0780
0700
0F00
0E00
1C00
3C00
3800
7800
FFE0
FFE0
ENDCHAR

STARTCHAR bracketleft
ENCODING 91
SWIDTH 438 0
DWIDTH 8 0
BBX 6 17 1 -4
BITMAP
FC
FC
E0
E0
E0
E0
E0
E0
E0
E0
E0
E0
E0
E0
E0
FC
FC
ENDCHAR

STARTCHAR backslash
ENCODING 92
SWIDTH 281 0
DWIDTH 5 0
BBX 5 13 0 0
BITMAP
C0
C0
C0
60
60
60
30
30
30
30
18
18
18
ENDCHAR

STARTCHAR bracketright
ENCODING 93
SWIDTH 438 0
DWIDTH 8 0
BBX 6 17 1 -4
BITMAP
FC
FC
1C
1C
1C
1C
1C
1C
1C
1C
1C
1C
1C
1C
1C
FC
FC
ENDCHAR

STARTCHAR asciicircum
ENCODING 94
SWIDTH 584 0
DWIDTH 11 0
BBX 9 8 1 5
BITMAP
0800
1C00
1C00
3600
3600
6300
6300
C180
ENDCHAR

STARTCHAR underscore
ENCODING 95
SWIDTH 500 0
DWIDTH 10 0
BBX 10 1 0 -2
BITMAP
FFC0
ENDCHAR

STARTCHAR quoteleft
ENCODING 96
SWIDTH 271 0
DWIDTH 5 0
BBX 3 6 1 8
BITMAP
60
C0
C0
E0
E0
E0
ENDCHAR

STARTCHAR a
ENCODING 97
SWIDTH 531 0
DWIDTH 10 0
BBX 9 9 1 0
BITMAP
3E00
7F00
0700
3F00
7F00
E700
E700
FF80
7B80
ENDCHAR

STARTCHAR b
ENCODING 98
SWIDTH 583 0
DWIDTH 11 0
BBX 9 13 1 0
BITMAP
E000
E000
E000
E000
EE00
FF00
F380
E380
E380
E380
E380
FF00
FE00
ENDCHAR

STARTCHAR c
ENCODING 99
SWIDTH 500 0
DWIDTH 10 0
BBX 8 9 1 0
BITMAP
3E
7F
E3
E0
E0
E0
E3
7F
3E
ENDCHAR

STARTCHAR d
ENCODING 100
SWIDTH 583 0
DWIDTH 11 0
BBX 9 13 1 0
BITMAP
0380
0380
0380
0380
3F80
7F80
E380
E380
E380
E380
E380
7F80
3F80
ENDCHAR

STARTCHAR e
ENCODING 101
SWIDTH 552 0
DWIDTH 10 0
BBX 8 9 1 0
BITMAP
3C
7E
E7
FF
FF
E0
E3
7F
3E
ENDCHAR

STARTCHAR f
ENCODING 102
SWIDTH 302 0
DWIDTH 6 0
BBX 6 13 0 0
BITMAP
1C
3C
70
70
F8
F8
70
70
70
70
70
70
70
ENDCHAR

STARTCHAR g
ENCODING 103
SWIDTH 542 0
DWIDTH 10 0
BBX 9 14 0 -4
BITMAP
0180
3F00
7E00
E700
E700
7E00
3C00
7000
3E00
7F00
E380
E380
7F00
3E00
ENDCHAR

STARTCHAR h
ENCODING 104
SWIDTH 583 0
DWIDTH 11 0
BBX 9 13 1 0
BITMAP
E000
E000
E000
E000
EF00
FF80
F380
E380
E380
E380
E380
E380
E380
ENDCHAR

STARTCHAR i
ENCODING 105
SWIDTH 271 0
DWIDTH 5 0
BBX 3 13 1 0
BITMAP
E0
E0
E0
00
E0
E0
E0
E0
E0
E0
E0
E0
E0
ENDCHAR

STARTCHAR j
ENCODING 106
SWIDTH 271 0
DWIDTH 5 0
BBX 4 17 0 -4
BITMAP
70
70
70
00
70
70
70
70
70
70
70
70
70
70
70
F0
E0
ENDCHAR

STARTCHAR k
ENCODING 107
SWIDTH 552 0
DWIDTH 10 0
BBX 9 13 1 0
BITMAP
E000
E000
E000
E000
E700
EE00
FC00
F800
F800
FC00
EE00
E700
E380
ENDCHAR

STARTCHAR l
ENCODING 108
SWIDTH 271 0
DWIDTH 5 0
BBX 3 13 1 0
BITMAP
E0
E0
E0
E0
E0
E0
E0
E0
E0
E0
E0
E0
E0
ENDCHAR

STARTCHAR m
ENCODING 109
SWIDTH 958 0
DWIDTH 18 0
BBX 15 9 1 0
BITMAP
EE38
FFFC
F3CE
E38E
E38E
E38E
E38E
E38E
E38E
ENDCHAR

STARTCHAR n
ENCODING 110
SWIDTH 583 0
DWIDTH 11 0
BBX 9 9 1 0
BITMAP
EF00
FF80
F380
E380
E380
E380
E380
E380
E380
ENDCHAR

STARTCHAR o
ENCODING 111
SWIDTH 594 0
DWIDTH 11 0
BBX 9 9 1 0
BITMAP
3E00
7F00
E380
E380
E380
E380
E380
7F00
3E00
ENDCHAR

STARTCHAR p
ENCODING 112
SWIDTH 583 0
DWIDTH 11 0
BBX 9 13 1 -4
BITMAP
FE00
FF00
E380
E380
E380
E380
F380
FF00
EE00
E000
E000
E000
E000
ENDCHAR

STARTCHAR q
ENCODING 113
SWIDTH 583 0
DWIDTH 11 0
BBX 9 13 1 -4
BITMAP
3F80
7F80
E380
E380
E380
E380
E780
7F80
3B80
0380
0380
0380
0380
ENDCHAR

STARTCHAR r
ENCODING 114
SWIDTH 448 0
DWIDTH 9 0
BBX 7 9 1 0
BITMAP
EE
FE
F0
E0
E0
E0
E0
E0
E0
ENDCHAR

STARTCHAR s
ENCODING 115
SWIDTH 427 0
DWIDTH 8 0
BBX 7 9 0 0
BITMAP
3C
7E
E6
F0
7C
1E
CE
FC
78
ENDCHAR

STARTCHAR t
ENCODING 116
SWIDTH 406 0
DWIDTH 8 0
BBX 7 11 0 0
BITMAP
30
70
FC
FC
70
70
70
70
70
7E
3C
ENDCHAR

STARTCHAR u
ENCODING 117
SWIDTH 583 0
DWIDTH 11 0
BBX 9 9 1 0
BITMAP
E380
E380
E380
E380
E380
E380
E780
7F80
3D80
ENDCHAR

STARTCHAR v
ENCODING 118
SWIDTH 510 0
DWIDTH 10 0
BBX 10 9 0 0
BITMAP
E1C0
7380
7380
3F00
3F00
1E00
1E00
0C00
0C00
ENDCHAR

STARTCHAR w
ENCODING 119
SWIDTH 781 0
DWIDTH 15 0
BBX 15 9 0 0
BITMAP
E10E
E38C
739C
37D8
3EF8
3EF8
1C70
1C70
0820
ENDCHAR

STARTCHAR x
ENCODING 120
SWIDTH 552 0
DWIDTH 10 0
BBX 10 9 0 0
BITMAP
E1C0
7380
3F00
1E00
0E00
1F00
3B80
71C0
E0C0
ENDCHAR

STARTCHAR y
ENCODING 121
SWIDTH 510 0
DWIDTH 10 0
BBX 10 13 0 -4
BITMAP
E1C0
E1C0
7380
3300
3F00
1E00
0E00
1C00
1C00
3800
3800
7000
7000
ENDCHAR

STARTCHAR z
ENCODING 122
SWIDTH 521 0
DWIDTH 10 0
BBX 8 9 1 0
BITMAP
FF
FF
0E
1C
38
38
70
FF
FF
ENDCHAR

STARTCHAR braceleft
ENCODING 123
SWIDTH 385 0
DWIDTH 7 0
BBX 6 18 1 -4
BITMAP
0C
18
30
30
30
30
30
30
60
C0
60
30
30
30
30
30
18
0C
ENDCHAR

STARTCHAR bar
ENCODING 124
SWIDTH 281 0
DWIDTH 5 0
BBX 2 17 1 -4
BITMAP
C0
C0
C0
C0
C0
C0
C0
C0
C0
C0
C0
C0
C0
C0
C0
C0
C0
ENDCHAR

STARTCHAR braceright
ENCODING 125
SWIDTH 385 0
DWIDTH 7 0
BBX 6 18 0 -4
BITMAP
C0
60
30
30
30
30
30
30
18
0C
18
30
30
30
30
30
60
C0
ENDCHAR

STARTCHAR asciitilde
ENCODING 126
SWIDTH 584 0
DWIDTH 11 0
BBX 10 3 0 4
BITMAP
38C0
7F80
C700
ENDCHAR

STARTCHAR space
ENCODING 160
SWIDTH 278 0
DWIDTH 5 0
BBX 0 0 0 0
BITMAP
ENDCHAR

STARTCHAR exclamdown
ENCODING 161
SWIDTH 271 0
DWIDTH 5 0
BBX 3 13 1 -4
BITMAP
E0
E0
E0
00
40
40
E0
E0
E0
E0
E0
E0
E0
ENDCHAR

STARTCHAR cent
ENCODING 162
SWIDTH 500 0
DWIDTH 10 0
BBX 8 16 1 -4
BITMAP
01
03
02
3F
7F
E7
E4
EC
E8
FB
7F
3E
10
30
20
20
ENDCHAR

STARTCHAR sterling
ENCODING 163
SWIDTH 521 0
DWIDTH 10 0
BBX 8 13 1 0
BITMAP
0E
1F
1B
38
38
38
FC
FC
70
70
70
FF
FF
ENDCHAR

STARTCHAR currency
ENCODING 164
SWIDTH 552 0
DWIDTH 10 0
BBX 9 9 0 3
BITMAP
DD80
FF80
7700
E380
C180
E380
7700
FF80
DD80
ENDCHAR

STARTCHAR yen
ENCODING 165
SWIDTH 552 0
DWIDTH 10 0
BBX 11 14 0 0
BITMAP
E0E0
F1E0
7BC0
3F80
1F00
0E00
7FC0
7FC0
0E00
7FC0
7FC0
0E00
0E00
0E00
ENDCHAR

STARTCHAR brokenbar
ENCODING 166
SWIDTH 281 0
DWIDTH 5 0
BBX 2 17 1 -4
BITMAP
C0
C0
C0
C0
C0
C0
C0
00
00
C0
C0
C0
C0
C0
C0
C0
C0
ENDCHAR

STARTCHAR section
ENCODING 167
SWIDTH 521 0
DWIDTH 10 0
BBX 8 17 1 -4
BITMAP
3C
7E
76
70
38
7C
FE
EF
E7
F7
7F
3E
1E
0E
6E
7E
3C
ENDCHAR

STARTCHAR dieresis
ENCODING 168
SWIDTH 333 0
DWIDTH 6 0
BBX 6 2 0 10
BITMAP
CC
CC
ENDCHAR

STARTCHAR copyright
ENCODING 169
SWIDTH 740 0
DWIDTH 14 0
BBX 13 13 0 0
BITMAP
0F80
3FE0
7070
6730
CF98
DD98
D818
DD98
CF98
6730
7070
3FE0
0F80
ENDCHAR

STARTCHAR ordfeminine
ENCODING 170
SWIDTH 354 0
DWIDTH 7 0
BBX 6 5 1 8
BITMAP
70
98
78
D8
EC
ENDCHAR

STARTCHAR guillemotleft
ENCODING 171
SWIDTH 594 0
DWIDTH 11 0
BBX 11 9 0 0
BITMAP
0C60
18C0
3180
6300
C600
6300
3180
18C0
0C60
ENDCHAR

STARTCHAR logicalnot
ENCODING 172
SWIDTH 584 0
DWIDTH 11 0
BBX 9 5 1 3
BITMAP
FF80
FF80
0180
0180
0180
ENDCHAR

STARTCHAR hyphen
ENCODING 173
SWIDTH 333 0
DWIDTH 6 0
BBX 5 2 0 3
BITMAP
F8
F8
ENDCHAR

STARTCHAR registered
ENCODING 174
SWIDTH 740 0
DWIDTH 14 0
BBX 13 13 0 0
BITMAP
0F80
3FE0
7070
6F30
CF98
CD98
CF18
CF98
CD98
6DB0
7070
3FE0
0F80
ENDCHAR

STARTCHAR macron
ENCODING 175
SWIDTH 333 0
DWIDTH 6 0
BBX 6 2 0 10
BITMAP
FC
FC
ENDCHAR

STARTCHAR degree
ENCODING 176
SWIDTH 396 0
DWIDTH 8 0
BBX 6 6 1 8
BITMAP
78
FC
CC
CC
FC
78
ENDCHAR

STARTCHAR plusminus
ENCODING 177
SWIDTH 584 0
DWIDTH 11 0
BBX 8 12 1 0
BITMAP
18
18
18
FF
FF
18
18
18
00
00
FF
FF
ENDCHAR

STARTCHAR twosuperior
ENCODING 178
SWIDTH 333 0
DWIDTH 6 0
BBX 5 7 0 6
BITMAP
70
F8
18
10
20
78
F8
ENDCHAR

STARTCHAR threesuperior
ENCODING 179
SWIDTH 333 0
DWIDTH 6 0
BBX 5 7 0 6
BITMAP
70
F8
18
30
18
F8
70
ENDCHAR

STARTCHAR acute
ENCODING 180
SWIDTH 333 0
DWIDTH 6 0
BBX 4 3 1 10
BITMAP
70
60
C0
ENDCHAR

STARTCHAR mu
ENCODING 181
SWIDTH 615 0
DWIDTH 12 0
BBX 9 12 1 -3
BITMAP
E380
E380
E380
E380
E380
E380
E780
FF80
FB80
E000
E000
E000
ENDCHAR

STARTCHAR paragraph
ENCODING 182
SWIDTH 552 0
DWIDTH 10 0
BBX 10 17 0 -3
BITMAP
3FC0
7FC0
F980
F980
F980
7980
3980
1980
1980
1980
1980
1980
1980
1980
1980
1980
1980
ENDCHAR

STARTCHAR periodcentered
ENCODING 183
SWIDTH 271 0
DWIDTH 5 0
BBX 3 3 1 5
BITMAP
E0
E0
E0
ENDCHAR

STARTCHAR cedilla
ENCODING 184
SWIDTH 333 0
DWIDTH 6 0
BBX 5 3 1 -3
BITMAP
70
38
F0
ENDCHAR

STARTCHAR onesuperior
ENCODING 185
SWIDTH 333 0
DWIDTH 6 0
BBX 2 7 2 6
BITMAP
C0
C0
C0
C0
C0
C0
C0
ENDCHAR

STARTCHAR ordmasculine
ENCODING 186
SWIDTH 396 0
DWIDTH 8 0
BBX 6 7 1 6
BITMAP
78
CC
CC
CC
CC
CC
78
ENDCHAR

STARTCHAR guillemotright
ENCODING 187
SWIDTH 594 0
DWIDTH 11 0
BBX 11 9 0 0
BITMAP
C600
6300
3180
18C0
0C60
18C0
3180
6300
C600
ENDCHAR

STARTCHAR onequarter
ENCODING 188
SWIDTH 896 0
DWIDTH 17 0
BBX 13 13 2 0
BITMAP
C060
C0C0
C180
C180
C300
C600
C630
0C70
18F0
31B0
31F8
6030
C030
ENDCHAR

STARTCHAR onehalf
ENCODING 189
SWIDTH 896 0
DWIDTH 17 0
BBX 13 13 2 0
BITMAP
C060
C0C0
C180
C100
C300
C600
CC70
0CF8
1818
3010
2020
6078
C0F8
ENDCHAR

STARTCHAR threequarters
ENCODING 190
SWIDTH 896 0
DWIDTH 17 0
BBX 14 13 1 0
BITMAP
7018
F830
1860
3060
18C0
F980
7118
0338
0678
04D8
0CFC
1818
3018
ENDCHAR

STARTCHAR questiondown
ENCODING 191
SWIDTH 375 0
DWIDTH 7 0
BBX 6 13 0 -4
BITMAP
38
38
38
00
18
18
38
70
70
E0
E4
FC
78
ENDCHAR

STARTCHAR Agrave
ENCODING 192
SWIDTH 781 0
DWIDTH 15 0
BBX 15 17 0 0
BITMAP
0700
0300
0180
0000
0380
07C0
07C0
0EE0
0EE0
1C70
1C70
3838
3FF8
7FFC
701C
F01E
E00E
ENDCHAR

STARTCHAR Aacute
ENCODING 193
SWIDTH 781 0
DWIDTH 15 0
BBX 15 17 0 0
BITMAP
01C0
0180
0300
0000
0380
07C0
07C0
0EE0
0EE0
1C70
1C70
3838
3FF8
7FFC
701C
F01E
E00E
ENDCHAR

STARTCHAR Acircumflex
ENCODING 194
SWIDTH 781 0
DWIDTH 15 0
BBX 15 17 0 0
BITMAP
0100
0380
06C0
0000
0380
07C0
07C0
0EE0
0EE0
1C70
1C70
3838
3FF8
7FFC
701C
F01E
E00E
ENDCHAR

STARTCHAR Atilde
ENCODING 195
SWIDTH 781 0
DWIDTH 15 0
BBX 15 17 0 0
BITMAP
0320
07E0
04C0
0000
0380
07C0
07C0
0EE0
0EE0
1C70
1C70
3838
3FF8
7FFC
701C
F01E
E00E
ENDCHAR

STARTCHAR Adieresis
ENCODING 196
SWIDTH 781 0
DWIDTH 15 0
BBX 15 16 0 0
BITMAP
06C0
06C0
0000
0380
07C0
07C0
0EE0
0EE0
1C70
1C70
3838
3FF8
7FFC
701C
F01E
E00E
ENDCHAR

STARTCHAR Aring
ENCODING 197
SWIDTH 781 0
DWIDTH 15 0
BBX 15 18 0 0
BITMAP
0380
06C0
06C0
0380
0000
0380
07C0
07C0
0EE0
0EE0
1C70
1C70
3838
3FF8
7FFC
701C
F01E
E00E
ENDCHAR

STARTCHAR AE
ENCODING 198
SWIDTH 1073 0
DWIDTH 20 0
BBX 19 13 0 0
BITMAP
01FFE0
01FFE0
03B800
07B800
073800
0FFFC0
0FFFC0
1C3800
1C3800
383800
783800
703FE0
F03FE0
ENDCHAR

STARTCHAR Ccedilla
ENCODING 199
SWIDTH 771 0
DWIDTH 15 0
BBX 12 16 1 -3
BITMAP
0F80
3FE0
78F0
7070
F000
E000
E000
E000
F000
7070
78F0
3FE0
0F80
0700
0380
0F00
ENDCHAR

STARTCHAR Egrave
ENCODING 200
SWIDTH 635 0
DWIDTH 12 0
BBX 9 17 2 0
BITMAP
3800
1800
0C00
0000
FF80
FF80
E000
E000
E000
FF00
FF00
E000
E000
E000
E000
FF80
FF80
ENDCHAR

STARTCHAR Eacute
ENCODING 201
SWIDTH 635 0
DWIDTH 12 0
BBX 9 17 2 0
BITMAP
0E00
0C00
1800
0000
FF80
FF80
E000
E000
E000
FF00
FF00
E000
E000
E000
E000
FF80
FF80
ENDCHAR

STARTCHAR Ecircumflex
ENCODING 202
SWIDTH 635 0
DWIDTH 12 0
BBX 9 17 2 0
BITMAP
0800
1C00
3600
0000
FF80
FF80
E000
E000
E000
FF00
FF00
E000
E000
E000
E000
FF80
FF80
ENDCHAR

STARTCHAR Edieresis
ENCODING 203
SWIDTH 635 0
DWIDTH 12 0
BBX 9 16 2 0
BITMAP
3600
3600
0000
FF80
FF80
E000
E000
E000
FF00
FF00
E000
E000
E000
E000
FF80
FF80
ENDCHAR

STARTCHAR Igrave
ENCODING 204
SWIDTH 333 0
DWIDTH 6 0
BBX 4 17 1 0
BITMAP
E0
60
30
00
E0
E0
E0
E0
E0
E0
E0
E0
E0
E0
E0
E0
E0
ENDCHAR

STARTCHAR Iacute
ENCODING 205
SWIDTH 333 0
DWIDTH 6 0
BBX 4 17 1 0
BITMAP
70
60
C0
00
E0
E0
E0
E0
E0
E0
E0
E0
E0
E0
E0
E0
E0
ENDCHAR

STARTCHAR Icircumflex
ENCODING 206
SWIDTH 333 0
DWIDTH 6 0
BBX 5 17 0 0
BITMAP
20
70
D8
00
70
70
70
70
70
70
70
70
70
70
70
70
70
ENDCHAR

STARTCHAR Idieresis
ENCODING 207
SWIDTH 333 0
DWIDTH 6 0
BBX 5 16 0 0
BITMAP
D8
D8
00
70
70
70
70
70
70
70
70
70
70
70
70
70
ENDCHAR

STARTCHAR Eth
ENCODING 208
SWIDTH 802 0
DWIDTH 15 0
BBX 14 13 0 0
BITMAP
3FC0
3FF0
3878
3838
383C
FE1C
FE1C
381C
383C
3838
3878
3FF0
3FC0
ENDCHAR

STARTCHAR Ntilde
ENCODING 209
SWIDTH 844 0
DWIDTH 16 0
BBX 12 17 2 0
BITMAP
0C80
1F80
1300
0000
C070
E070
F070
F870
FC70
FE70
EF70
E7F0
E3F0
E1F0
E0F0
E070
E030
ENDCHAR

STARTCHAR Ograve
ENCODING 210
SWIDTH 875 0
DWIDTH 17 0
BBX 13 17 2 0
BITMAP
0E00
0600
0300
0000
0F80
3FE0
78F0
7070
F078
E038
E038
E038
F078
7070
78F0
3FE0
0F80
ENDCHAR

STARTCHAR Oacute
ENCODING 211
SWIDTH 875 0
DWIDTH 17 0
BBX 13 17 2 0
BITMAP
0380
0300
0600
0000
0F80
3FE0
78F0
7070
F078
E038
E038
E038
F078
7070
78F0
3FE0
0F80
ENDCHAR

STARTCHAR Ocircumflex
ENCODING 212
SWIDTH 875 0
DWIDTH 17 0
BBX 13 17 2 0
BITMAP
0200
0700
0D80
0000
0F80
3FE0
78F0
7070
F078
E038
E038
E038
F078
7070
78F0
3FE0
0F80
ENDCHAR

STARTCHAR Otilde
ENCODING 213
SWIDTH 875 0
DWIDTH 17 0
BBX 13 17 2 0
BITMAP
0640
0FC0
0980
0000
0F80
3FE0
78F0
7070
F078
E038
E038
E038
F078
7070
78F0
3FE0
0F80
ENDCHAR

STARTCHAR Odieresis
ENCODING 214
SWIDTH 875 0
DWIDTH 17 0
BBX 13 16 2 0
BITMAP
0CC0
0CC0
0000
0F80
3FE0
78F0
7070
F078
E038
E038
E038
F078
7070
78F0
3FE0
0F80
ENDCHAR

STARTCHAR multiply
ENCODING 215
SWIDTH 584 0
DWIDTH 11 0
BBX 9 9 1 2
BITMAP
C180
6300
3600
1C00
0800
1C00
3600
6300
C180
ENDCHAR

STARTCHAR Oslash
ENCODING 216
SWIDTH 875 0
DWIDTH 17 0
BBX 13 13 2 0
BITMAP
0F98
3FF8
78F0
70F0
F1F8
E3B8
E738
EE38
FC78
7870
78F0
FFE0
CF80
ENDCHAR

STARTCHAR Ugrave
ENCODING 217
SWIDTH 823 0
DWIDTH 16 0
BBX 12 17 2 0
BITMAP
0E00
0600
0300
0000
E070
E070
E070
E070
E070
E070
E070
E070
E070
E070
70E0
7FE0
1F80
ENDCHAR

STARTCHAR Uacute
ENCODING 218
SWIDTH 823 0
DWIDTH 16 0
BBX 12 17 2 0
BITMAP
0380
0300
0600
0000
E070
E070
E070
E070
E070
E070
E070
E070
E070
E070
70E0
7FE0
1F80
ENDCHAR

STARTCHAR Ucircumflex
ENCODING 219
SWIDTH 823 0
DWIDTH 16 0
BBX 12 17 2 0
BITMAP
0200
0700
0D80
0000
E070
E070
E070
E070
E070
E070
E070
E070
E070
E070
70E0
7FE0
1F80
ENDCHAR

STARTCHAR Udieresis
ENCODING 220
SWIDTH 823 0
DWIDTH 16 0
BBX 12 16 2 0
BITMAP
1980
1980
0000
E070
E070
E070
E070
E070
E070
E070
E070
E070
E070
70E0
7FE0
1F80
ENDCHAR

STARTCHAR Yacute
ENCODING 221
SWIDTH 708 0
DWIDTH 13 0
BBX 13 16 0 0
BITMAP
0380
0300
0600
E038
F078
78F0
3DE0
1FC0
0F80
0700
0700
0700
0700
0700
0700
0700
ENDCHAR

STARTCHAR Thorn
ENCODING 222
SWIDTH 656 0
DWIDTH 12 0
BBX 9 13 1 0
BITMAP
E000
E000
E000
FF00
FF80
E380
E380
E380
FF80
FF00
E000
E000
E000
ENDCHAR

STARTCHAR germandbls
ENCODING 223
SWIDTH 604 0
DWIDTH 11 0
BBX 9 13 1 0
BITMAP
3C00
7E00
E700
E700
E700
E600
EF00
E700
E380
E380
E380
E700
EE00
ENDCHAR

STARTCHAR agrave
ENCODING 224
SWIDTH 531 0
DWIDTH 10 0
BBX 9 13 1 0
BITMAP
3800
1800
0C00
0000
3E00
7F00
0700
3F00
7F00
E700
E700
FF80
7B80
ENDCHAR

STARTCHAR aacute
ENCODING 225
SWIDTH 531 0
DWIDTH 10 0
BBX 9 13 1 0
BITMAP
0E00
0C00
1800
0000
3E00
7F00
0700
3F00
7F00
E700
E700
FF80
7B80
ENDCHAR

STARTCHAR acircumflex
ENCODING 226
SWIDTH 531 0
DWIDTH 10 0
BBX 9 13 1 0
BITMAP
0800
1C00
3600
0000
3E00
7F00
0700
3F00
7F00
E700
E700
FF80
7B80
ENDCHAR

STARTCHAR atilde
ENCODING 227
SWIDTH 531 0
DWIDTH 10 0
BBX 9 13 1 0
BITMAP
1900
3F00
2600
0000
3E00
7F00
0700
3F00
7F00
E700
E700
FF80
7B80
ENDCHAR

STARTCHAR adieresis
ENCODING 228
SWIDTH 531 0
DWIDTH 10 0
BBX 9 12 1 0
BITMAP
3600
3600
0000
3E00
7F00
0700
3F00
7F00
E700
E700
FF80
7B80
ENDCHAR

STARTCHAR aring
ENCODING 229
SWIDTH 531 0
DWIDTH 10 0
BBX 9 14 1 0
BITMAP
1C00
3600
3600
1C00
0000
3E00
7F00
0700
3F00
7F00
E700
E700
FF80
7B80
ENDCHAR

STARTCHAR ae
ENCODING 230
SWIDTH 781 0
DWIDTH 15 0
BBX 13 9 1 0
BITMAP
3CF0
7FF8
0718
3FF8
7FF8
E700
E718
FFF8
7DF0
ENDCHAR

STARTCHAR ccedilla
ENCODING 231
SWIDTH 500 0
DWIDTH 10 0
BBX 8 12 1 -3
BITMAP
3E
7F
E3
E0
E0
E0
E3
7F
3E
1C
0E
3C
ENDCHAR

STARTCHAR egrave
ENCODING 232
SWIDTH 552 0
DWIDTH 10 0
BBX 8 13 1 0
BITMAP
38
18
0C
00
3C
7E
E7
FF
FF
E0
E3
7F
3E
ENDCHAR

STARTCHAR eacute
ENCODING 233
SWIDTH 552 0
DWIDTH 10 0
BBX 8 13 1 0
BITMAP
0E
0C
18
00
3C
7E
E7
FF
FF
E0
E1
7F
3E
ENDCHAR

STARTCHAR ecircumflex
ENCODING 234
SWIDTH 552 0
DWIDTH 10 0
BBX 8 13 1 0
BITMAP
08
1C
36
00
3C
7E
E7
FF
FF
E0
E1
7F
3E
ENDCHAR

STARTCHAR edieresis
ENCODING 235
SWIDTH 552 0
DWIDTH 10 0
BBX 8 12 1 0
BITMAP
36
36
00
3C
7E
E7
FF
FF
E0
E3
7F
3E
ENDCHAR

STARTCHAR igrave
ENCODING 236
SWIDTH 271 0
DWIDTH 5 0
BBX 4 13 0 0
BITMAP
E0
60
30
00
70
70
70
70
70
70
70
70
70
ENDCHAR

STARTCHAR iacute
ENCODING 237
SWIDTH 271 0
DWIDTH 5 0
BBX 4 13 1 0
BITMAP
70
60
C0
00
E0
E0
E0
E0
E0
E0
E0
E0
E0
ENDCHAR

STARTCHAR icircumflex
ENCODING 238
SWIDTH 271 0
DWIDTH 5 0
BBX 5 13 0 0
BITMAP
20
70
D8
00
70
70
70
70
70
70
70
70
70
ENDCHAR

STARTCHAR idieresis
ENCODING 239
SWIDTH 271 0
DWIDTH 5 0
BBX 5 12 0 0
BITMAP
D8
D8
00
70
70
70
70
70
70
70
70
70
ENDCHAR

STARTCHAR eth
ENCODING 240
SWIDTH 615 0
DWIDTH 12 0
BBX 9 14 1 0
BITMAP
7600
1C00
3C00
6E00
0600
3F00
7F00
E380
E380
E380
E380
E380
7F00
3E00
ENDCHAR

STARTCHAR ntilde
ENCODING 241
SWIDTH 583 0
DWIDTH 11 0
BBX 9 13 1 0
BITMAP
1900
3F00
2600
0000
EF00
FF80
F380
E380
E380
E380
E380
E380
E380
ENDCHAR

STARTCHAR ograve
ENCODING 242
SWIDTH 594 0
DWIDTH 11 0
BBX 9 13 1 0
BITMAP
3800
1800
0C00
0000
3E00
7F00
E380
E380
E380
E380
E380
7F00
3E00
ENDCHAR

STARTCHAR oacute
ENCODING 243
SWIDTH 594 0
DWIDTH 11 0
BBX 9 13 1 0
BITMAP
0E00
0C00
1800
0000
3E00
7F00
E380
E380
E380
E380
E380
7F00
3E00
ENDCHAR

STARTCHAR ocircumflex
ENCODING 244
SWIDTH 594 0
DWIDTH 11 0
BBX 9 13 1 0
BITMAP
0800
1C00
3600
0000
3E00
7F00
E380
E380
E380
E380
E380
7F00
3E00
ENDCHAR

STARTCHAR otilde
ENCODING 245
SWIDTH 594 0
DWIDTH 11 0
BBX 9 13 1 0
BITMAP
1900
3F00
2600
0000
3E00
7F00
E380
E380
E380
E380
E380
7F00
3E00
ENDCHAR

STARTCHAR odieresis
ENCODING 246
SWIDTH 594 0
DWIDTH 11 0
BBX 9 12 1 0
BITMAP
3300
3300
0000
3E00
7F00
E380
E380
E380
E380
E380
7F00
3E00
ENDCHAR

STARTCHAR divide
ENCODING 247
SWIDTH 584 0
DWIDTH 11 0
BBX 8 10 1 2
BITMAP
18
18
00
00
FF
FF
00
00
18
18
ENDCHAR

STARTCHAR oslash
ENCODING 248
SWIDTH 594 0
DWIDTH 11 0
BBX 11 11 0 -1
BITMAP
0060
1FC0
3F80
73C0
77C0
7DC0
79C0
71C0
7F80
DF00
8000
ENDCHAR

STARTCHAR ugrave
ENCODING 249
SWIDTH 583 0
DWIDTH 11 0
BBX 9 13 1 0
BITMAP
3800
1800
0C00
0000
E380
E380
E380
E380
E380
E380
E780
7F80
3D80
ENDCHAR

STARTCHAR uacute
ENCODING 250
SWIDTH 583 0
DWIDTH 11 0
BBX 9 13 1 0
BITMAP
0E00
0C00
1800
0000
E380
E380
E380
E380
E380
E380
E780
7F80
3D80
ENDCHAR

STARTCHAR ucircumflex
ENCODING 251
SWIDTH 583 0
DWIDTH 11 0
BBX 9 13 1 0
BITMAP
0800
1C00
3600
0000
E380
E380
E380
E380
E380
E380
E780
7F80
3D80
ENDCHAR

STARTCHAR udieresis
ENCODING 252
SWIDTH 583 0
DWIDTH 11 0
BBX 9 12 1 0
BITMAP
3300
3300
0000
E380
E380
E380
E380
E380
E380
E780
7F80
3D80
ENDCHAR

STARTCHAR yacute
ENCODING 253
SWIDTH 510 0
DWIDTH 10 0
BBX 10 17 0 -4
BITMAP
0700
0600
0C00
0000
E1C0
E1C0
7380
3300
3F00
1E00
0E00
1C00
1C00
3800
3800
7000
7000
ENDCHAR

STARTCHAR thorn
ENCODING 254
SWIDTH 583 0
DWIDTH 11 0
BBX 9 17 1 -4
BITMAP
E000
E000
E000
E000
EF00
FF80
F380
E380
E380
E380
F380
FF00
EE00
E000
E000
E000
E000
ENDCHAR

STARTCHAR ydieresis
ENCODING 255
SWIDTH 510 0
DWIDTH 10 0
BBX 10 16 0 -4
BITMAP
3300
3300
0000
E1C0
E1C0
7380
3300
3F00
1E00
0E00
1C00
1C00
3800
3800
7000
7000
ENDCHAR
ENDFONT
